# xmcd
#
# Track frame offsets:
#	150
#	16975
#	45845
#	59208
#	73906
#	87091
#	101255
#	117194
#	131900
#	145180
#	161440
#	176403
#	191099
#	205844
#	220774
#	242248
#	256240
#	278375
#	297808
#	318171
#
# Disc length: 4477 seconds
#
# Revision: 0
# Processed by: cddbd v1.5.2PL0 Copyright (c) Steve Scherf et al.
# Submitted via: EasyCDDAExtractor 16.0.6.1
#
DISCID=1e117b14
DTITLE=Νίκος Ξυλούρης - Και οι φίλοι του Cd2
DYEAR=1900
DGENRE=
TTITLE0=Μια παντρεμένη αγαπώ (Νίκος Ξυλούρης)
TTITLE1=Εις του Βάρσαμου το νερό (Νίκος Ξυλούρης)
TTITLE2=Απόψε μουσαφίρης σου (Νίκος Ξυλούρης Α.Σταυρακάκης)
TTITLE3=Ζήσω πεθάνω στη ζωή (Νίκος Ξυλούρης)
TTITLE4=Κρητικοπούλα μου (Νίκος Ξυλούρης)
TTITLE5=Έφυγες δίχως αφορμή (Νίκος Ξυλούρης)
TTITLE6=Μαλεβιζιώτικος Καστρινός χορός (Ορζηστρικό)
TTITLE7=Σύννεφα φέρετε βροχή (Νίκος Ξυλούρης)
TTITLE8=Ιντά΄χετε γυρού γυρού (Νίκος Ξυλούρης)
TTITLE9=Ζαμάνια το΄χα να σε δω (Νίκος Ξυλούρης)
TTITLE10=Μια πέρδικα συχνοτσιμπά (Νίκος Ξυλούρης)
TTITLE11=Κρύψε το μυστικό
TTITLE12=Στο ρίζωμα του χαρακιού (Νίκος Ξυλούρης)
TTITLE13=Σούστα Ρεθυμνιώτικη(Ορχηστρικό)
TTITLE14=Όσο βαρούν τα σίδερα (Χαΐνηδες)
TTITLE15=Αγρίμια κι αγριμάκια μου (Ψαραντώνης)
TTITLE16=Πόνοι της Παναγιάς (Γιάννης Χαρούλης)
TTITLE17=Η μαπλάντα του κυρ Μέντιου (Μανώλης Λιδάκης)
TTITLE18=Γλυκά είναι τα δάκρυα (Νίκη Ξυλούρη)
TTITLE19=Ανυφαντού (Ψαραντώνης)
EXTD=
EXTT0=
EXTT1=
EXTT2=
EXTT3=
EXTT4=
EXTT5=
EXTT6=
EXTT7=
EXTT8=
EXTT9=
EXTT10=
EXTT11=
EXTT12=
EXTT13=
EXTT14=
EXTT15=
EXTT16=
EXTT17=
EXTT18=
EXTT19=
PLAYORDER=
